<?xml version="1.0" encoding="UTF-8"?> <svg xmlns="http://www.w3.org/2000/svg" width="50" height="78" viewBox="0 0 50 78" fill="none"><g id="Group 571"><path id="Vector" d="M20.4665 16.9956C25.1597 16.9956 28.9643 13.191 28.9643 8.4978C28.9643 3.80459 25.1597 0 20.4665 0C15.7733 0 11.9687 3.80459 11.9687 8.4978C11.9687 13.191 15.7733 16.9956 20.4665 16.9956Z" fill="#004072"></path><path id="Vector_2" d="M36.7065 45.2422V58.1182C36.7065 67.4441 29.1506 75 19.8247 75C10.4989 75 2.94299 67.4441 2.94299 58.1182V45.2422C2.94299 38.8145 8.14932 33.6082 14.577 33.6082H25.0725" stroke="url(#paint0_linear_1363_67246)" stroke-width="5" stroke-linecap="round" stroke-linejoin="round"></path><g id="Group"><path id="Vector_3" d="M36.7064 35.782V56.4831" stroke="#004072" stroke-width="5" stroke-linecap="round" stroke-linejoin="round"></path><path id="Vector_4" d="M47.057 46.1323H26.3559" stroke="#004072" stroke-width="5" stroke-linecap="round" stroke-linejoin="round"></path></g></g><defs><linearGradient id="paint0_linear_1363_67246" x1="0.883235" y1="54.2989" x2="38.7766" y2="54.2989" gradientUnits="userSpaceOnUse"><stop stop-color="#1192D1"></stop><stop offset="1" stop-color="#63C5E4"></stop></linearGradient></defs></svg> 