<?xml version="1.0" encoding="UTF-8"?> <svg xmlns="http://www.w3.org/2000/svg" width="84" height="81" viewBox="0 0 84 81" fill="none"><g id="Group 570"><path id="Vector" d="M41.6282 39.939C46.3226 39.939 50.1282 36.1334 50.1282 31.439C50.1282 26.7445 46.3226 22.939 41.6282 22.939C36.9338 22.939 33.1282 26.7445 33.1282 31.439C33.1282 36.1334 36.9338 39.939 41.6282 39.939Z" fill="#004072"></path><path id="Vector_2" d="M46.6508 51.8564H37.3492C31.6526 51.8564 27.0385 56.4705 27.0385 62.1671V77.9908C12.9301 72.1292 3.01392 58.2134 3.01392 41.9861C3.01392 20.4566 20.4705 3 42 3C63.5294 3 80.986 20.4566 80.986 41.9861C80.986 58.2134 71.0606 72.1292 56.9523 78V62.1671" stroke="url(#paint0_linear_1363_67243)" stroke-width="5" stroke-linecap="round" stroke-linejoin="round"></path></g><defs><linearGradient id="paint0_linear_1363_67243" x1="1.17928" y1="40.5" x2="82.8207" y2="40.5" gradientUnits="userSpaceOnUse"><stop stop-color="#1192D1"></stop><stop offset="1" stop-color="#63C5E4"></stop></linearGradient></defs></svg> 