<?xml version="1.0" encoding="UTF-8"?> <svg xmlns="http://www.w3.org/2000/svg" width="68" height="78" viewBox="0 0 68 78" fill="none"><g id="Group 572"><path id="Vector" d="M18.7008 23.8332C23.2405 23.8332 26.9207 20.153 26.9207 15.6132C26.9207 11.0735 23.2405 7.39331 18.7008 7.39331C14.161 7.39331 10.4808 11.0735 10.4808 15.6132C10.4808 20.153 14.161 23.8332 18.7008 23.8332Z" fill="#103667"></path><path id="Vector_2" d="M49.3174 17.2612C53.8571 17.2612 57.5373 13.581 57.5373 9.04123C57.5373 4.50148 53.8571 0.821289 49.3174 0.821289C44.7776 0.821289 41.0974 4.50148 41.0974 9.04123C41.0974 13.581 44.7776 17.2612 49.3174 17.2612Z" fill="url(#paint0_linear_1363_67253)"></path><path id="Vector_3" d="M34 53.7802V60.2258C34 68.3733 27.3915 74.9819 19.244 74.9819H18.1214C9.9739 74.9819 3.36536 68.3733 3.36536 60.2258V46.9906C3.36536 42.5366 6.98647 38.9155 11.4404 38.9155H23.4807" stroke="#103667" stroke-width="5" stroke-linecap="round" stroke-linejoin="round"></path><path id="Vector_4" d="M34 55.6451V40.6718C34 36.2178 37.6211 32.5967 42.0751 32.5967H56.5596C61.0135 32.5967 64.6347 36.2178 64.6347 40.6718V60.2439C64.6347 68.3914 58.0261 75 49.8786 75H48.7379" stroke="url(#paint1_linear_1363_67253)" stroke-width="5" stroke-linecap="round" stroke-linejoin="round"></path></g><defs><linearGradient id="paint0_linear_1363_67253" x1="41.0974" y1="9.04123" x2="57.5554" y2="9.04123" gradientUnits="userSpaceOnUse"><stop stop-color="#1192D1"></stop><stop offset="1" stop-color="#63C5E4"></stop></linearGradient><linearGradient id="paint1_linear_1363_67253" x1="31.2842" y1="53.7802" x2="67.3505" y2="53.7802" gradientUnits="userSpaceOnUse"><stop stop-color="#1192D1"></stop><stop offset="1" stop-color="#63C5E4"></stop></linearGradient></defs></svg> 